<svg viewBox="0 0 1080 1080" fill="none" xmlns="http://www.w3.org/2000/svg">        <defs>    <filter id="filter" x="-20%" y="-20%" width="140%" height="140%" filterUnits="objectBoundingBox" primitiveUnits="userSpaceOnUse" color-interpolation-filters="linearRGB">      <feMorphology operator="dilate" radius="20 20" in="SourceAlpha" result="morphology"/>      <feFlood flood-color="#ffffff" flood-opacity="1" result="flood"/>      <feComposite in="flood" in2="morphology" operator="in" result="composite"/>      <feMerge result="merge">            <feMergeNode in="composite" result="mergeNode"/>        <feMergeNode in="SourceGraphic" result="mergeNode1"/>        </feMerge>    </filter>  </defs>        <g id="notion-avatar" filter="url(#filter)">          <g id="notion-avatar-face" fill="#ffffff">            <title>Face/ 11</title>    <g id="Face/-11" stroke="none" stroke-width="1" fill-rule="evenodd" stroke-linecap="round" stroke-linejoin="round">        <path d="M532,379 C664.54834,379 772,486.45166 772,619 C772,642.160109 783.234546,666.244677 777.453024,688.979248 C763.583554,743.517917 672,879 608,899 C513.514707,928.526654 373.476049,816.010833 320.189513,718.584987 C317.498129,718.859681 314.765451,719 312,719 C267.81722,719 232,683.18278 232,639 C232,599.134956 261.158843,566.080325 299.312086,560.00055 C325.599297,455.979213 419.809919,379 532,379 Z M295.858895,624.545187 L304.141105,655.454813" id="Path" stroke="#000000" stroke-width="24"/>    </g>      </g><g id="notion-avatar-nose">            <title>Nose/ 1</title>    <g id="Nose/-1" stroke="none" stroke-width="1" fill="none" fill-rule="evenodd" stroke-linecap="round" stroke-linejoin="round">        <path d="M633.532552,569.006852 C651.291821,622.395473 661.086671,652.555363 662.917104,659.486521 C664.747537,666.41768 663.749048,673.591123 659.921638,681.006852" id="Line" stroke="#000000" stroke-width="16" transform="translate(648.668966, 625.006852) rotate(-3.225647) translate(-648.668966, -625.006852) "/>    </g>      </g><g id="notion-avatar-mouth">        <g id="Mouth/ 17"><g id="Group"><path id="Path" fill-rule="evenodd" clip-rule="evenodd" d="M696 748.043C696 748.043 652.693 751.692 624.619 750.391C596.544 749.09 544 741 544 741C544 741 567.514 813 621.26 813C650.652 813 664.489 801.44 679.204 779.348C685.215 770.324 696 748.043 696 748.043Z" stroke="black" stroke-width="12" stroke-linecap="round" stroke-linejoin="round"/><path id="Path_2" d="M708 745.444C708 745.444 660.212 753.222 622.485 750.111C584.758 747 542 740 542 740" stroke="black" stroke-width="12" stroke-linecap="round" stroke-linejoin="round"/><path id="Path_3" d="M537 745C537 745 539.438 740.385 542.688 738.077C545.938 735.769 550 735 550 735" stroke="black" stroke-width="12" stroke-linecap="round" stroke-linejoin="round"/><path id="Path_4" d="M569 788C569 788 588.349 777 625.365 777C662.381 777 675 786.429 675 786.429" stroke="black" stroke-width="12" stroke-linecap="round" stroke-linejoin="round"/></g></g>      </g><g id="notion-avatar-eyes">            <title>Eyes/ 4</title>    <g id="Eyes/-4" stroke="none" stroke-width="1" fill="none" fill-rule="evenodd">        <path d="M570,516 C583.254834,516 594,526.745166 594,540 C594,553.254834 583.254834,564 570,564 C556.745166,564 546,553.254834 546,540 C546,526.745166 556.745166,516 570,516 Z M708,516 C721.254834,516 732,526.745166 732,540 C732,553.254834 721.254834,564 708,564 C694.745166,564 684,553.254834 684,540 C684,526.745166 694.745166,516 708,516 Z M562,526 C558.686292,526 556,528.686292 556,532 C556,535.313708 558.686292,538 562,538 C565.313708,538 568,535.313708 568,532 C568,528.686292 565.313708,526 562,526 Z M700,526 C696.686292,526 694,528.686292 694,532 C694,535.313708 696.686292,538 700,538 C703.313708,538 706,535.313708 706,532 C706,528.686292 703.313708,526 700,526 Z" id="Combined-Shape" fill="#000000"/>    </g>      </g><g id="notion-avatar-eyebrows">            <title>Eyebrows/ 6</title>    <g id="Eyebrows/-6" stroke="none" stroke-width="1" fill="none" fill-rule="evenodd" stroke-linecap="round" stroke-linejoin="round">        <path d="M620,495.140162 C589.850248,491.823271 565.234864,491.823271 546.153846,495.140162 C527.072829,498.457053 511.688213,505.410333 500,516 C517.257672,497.488903 532.642287,487.058984 546.153846,484.710243 C559.665405,482.361502 584.280789,485.838142 620,495.140162 Z M658,495.140162 C693.719211,485.838142 718.334595,482.361502 731.846154,484.710243 C745.357713,487.058984 760.742328,497.488903 778,516 C766.311787,505.410333 750.927171,498.457053 731.846154,495.140162 C712.765136,491.823271 688.149752,491.823271 658,495.140162 Z" id="Combined-Shape" stroke="#000000" stroke-width="8" fill="#000000"/>    </g>      </g><g id="notion-avatar-glasses">            <title>Glasses/ 9</title>    <g id="Glasses/-9" stroke="none" stroke-width="1" fill="none" fill-rule="evenodd" stroke-linecap="round" stroke-linejoin="round">        <g id="Group" transform="translate(289.000000, 466.000000)" fill="#000000" stroke="#000000" stroke-width="4">            <path d="M229.149255,5.21037268 C247.672154,10.005924 283.261021,26.6137093 324.690343,43.1526512 L325.464481,43.4558112 C331.11768,45.6282957 339.032765,47.7972932 349.209737,49.9628037 L349.209737,71.3661403 C344.161954,74.4730774 341.061801,77.3917142 339.909277,80.1220507 C325.535839,114.172813 298.479956,136.549029 257.050634,124.874482 C200.767297,109.014157 181.801459,25.6408303 180.110466,12.0205252 C178.419474,-1.59977987 196.205221,-3.31878925 229.149255,5.21037268 Z M470.850745,5.21037268 L472.809163,4.710934 C504.498419,-3.24526836 521.546707,-1.32737377 519.889534,12.0205252 C518.198541,25.6408303 499.232703,109.014157 442.949366,124.874482 C401.520044,136.549029 374.464161,114.172813 360.090723,80.1220507 C358.969348,77.4655071 356.004199,74.630704 351.195275,71.6176415 L350.790263,71.3661403 L350.790263,49.9628037 L352.195626,49.6606168 C362.16219,47.4947819 369.866867,45.3254601 375.309657,43.1526512 L377.788318,42.1603271 C418.155707,25.9541227 452.698304,9.91001298 470.850745,5.21037268 Z" id="Combined-Shape"/>            <polygon id="Path" points="199 43 4 75 0 84 199 64"/>        </g>    </g>      </g><g id="notion-avatar-hair">            <title>Hairstyle/ 9</title>    <g id="Hairstyle/-9" stroke="none" stroke-width="1" fill="none" fill-rule="evenodd" stroke-linecap="round" stroke-linejoin="round">        <path d="M600.328004,173.378628 C706.51335,164.088614 796.476165,200.935719 801.265577,255.678942 C803.695286,283.450641 783.737843,310.49297 749.618561,331.611505 C765.063752,338.699548 774.521929,348.01487 775.46916,358.841774 C776.714595,373.077161 763.016568,387.294038 739.738901,398.89906 L740.480755,402.50703 C740.650616,403.32637 740.823745,404.157384 741,405 C746.333333,406.333333 749,411.666667 749,421 C749,430.333333 737,447 713,471 C701.666667,455.666667 690,445.333333 678,440 C666.920655,435.075847 654.532414,432.679571 640.835277,432.811173 C637.222979,442.406663 631.069509,450.272246 622.5,455.219854 C608.589242,463.251234 591.202794,461.924641 575.013121,453.322279 C570.690288,458.087969 565.680763,462.179157 560,465.458947 C538.447788,477.902122 511.612082,476.138657 486.418588,463.265159 L485.395785,464.617496 C480.437333,471.120347 474.397833,478.222483 465,486 C445.666667,502 416.333333,512 377,516 L391,672 L371,672 L325,562 L289,568 C273.634723,510.922397 239,431 256,379 C266.31189,347.457747 308.818577,301.919892 356,277 C356.84754,276.552353 357.701097,276.115198 358.559964,275.688267 C352.18227,272.103338 343.995473,268.20694 334,264 C351.648204,258 368.981537,255 386,255 C397.257459,255 408.50684,256.312688 419.748142,258.938063 L421.437432,258.728011 C421.992551,258.660372 422.539594,258.595072 423.078261,258.531995 C444.228158,216.299002 514.42929,180.893791 600.328004,173.378628 Z" id="Path" stroke="#000000" stroke-width="12" fill="#000000"/>    </g>      </g><g id="notion-avatar-accessories">            <title>Accessories/ 0</title>    <g id="Accessories/-0" stroke="none" stroke-width="1" fill="none" fill-rule="evenodd"/>      </g><g id="notion-avatar-details">            <title>Details/ 0</title>    <g id="Details/-0" stroke="none" stroke-width="1" fill="none" fill-rule="evenodd"/>      </g><g id="notion-avatar-beard">            <title>Beard/ 0</title>    <g id="Beard/-0" stroke="none" stroke-width="1" fill="none" fill-rule="evenodd"/>      </g>        </g>        </svg>